<svg xmlns="http://www.w3.org/2000/svg" xmlns:xlink="http://www.w3.org/1999/xlink" id="Layer_1" x="0px" y="0px" viewBox="0 0 400 100" style="enable-background:new 0 0 400 100;" xml:space="preserve">
<style type="text/css">
	.st0{opacity:0.33;fill:#B1787E;}
</style>
<path class="st0" d="M282.3,29.4c-0.5-0.6-1.1-0.9-1.9-0.8c-0.2,0-0.4,0.1-0.6,0.1c-0.2,0-0.3,0-0.4,0c-0.2-0.4-0.3-0.8-0.5-1.2  c-0.3-0.7-1-1.1-1.7-1c-0.1,0-0.2,0-0.4,0c0-0.1,0-0.2,0-0.2c0.2-0.6,0.4-1.3,0.4-1.9c0-0.1,0.1-0.3,0.1-0.4  c0.1-0.4,0.3-0.7,0.4-1.1c0.3-0.8,0-1.5-0.5-2.2c-0.4-0.5-0.7-0.6-1.3-0.4c-0.3,0.1-0.7,0.2-1,0.3c-0.7,0.2-1.4,0.4-2.2,0.5  c-1.6,0.3-3.3,0.5-5,0.8c-0.2-0.1-0.5-0.1-0.8,0c-0.3,0.1-0.7,0.2-1,0.3c-0.2,0.1-0.4,0.1-0.6,0.2c-0.1,0-0.1,0-0.2,0  c-0.2-0.1-0.3-0.2-0.5-0.2c-0.6-0.1-1.1-0.2-1.6,0.3c-0.2,0.2-0.4,0.4-0.6,0.5c-0.2,0-0.5,0.1-0.7,0.1c-0.1-0.6-0.2-1.3-0.9-1.6  c0.4-0.5,0.4-0.9,0.5-1.4c0.1-0.2,0.1-0.4,0.2-0.6c0.3-0.5,0.3-1.1,0.5-1.6c0.1-0.1,0-0.3-0.1-0.5c-0.1-0.3-0.2-0.5-0.4-0.8  c0.2-0.1,0.3-0.1,0.4-0.1c0.7-0.1,1.3-0.2,2-0.4c2.3-0.5,3.2-0.7,5.1-1.7c-0.3-0.1-0.4-0.2-0.6-0.2c0.2-0.1,0.3-0.3,0.5-0.4  c-0.2,0-0.4,0-0.5,0c0.1-0.2,0.1-0.3,0.2-0.4c-0.3-0.2-0.6-0.5-0.9-0.7c0.3-0.1,0.5-0.2,0.6-0.2c0,0,0-0.1,0-0.1  c-1,0.2-3.4-0.2-5.3,0.4c-0.2,0-0.3,0.1-0.5,0.1c-2.6,0.2-3.1-1.2-5.1-0.9c-0.9,0.2-1.8,0.2-2.7,0.2c-0.4,0-0.9,0.2-1.3,0.1  c-0.7,0-1.4,0.1-2.1,0.3c-0.2,0.1-0.4,0.2-0.7,0.2c-0.3,0-0.5-0.1-0.8,0c-0.3,0-0.5,0.2-0.8,0.2c-0.3,0.1-0.6,0.1-0.9,0.2  c-0.6,0.1-1.2,0.2-1.9,0.3c-0.6,0.1-1.5,0.2-2.6,0.4c-0.3,0-0.5,0.1-0.8,0.1c-0.6,0.1-1.3,0.2-2,0.3c0,0-0.1,0-0.1,0  c0,0-0.1,0-0.1,0c-2.6,0.4-5.6,1-8.2,1.5c-3.1,0.5-6.9,1.2-9.9,1.8c-0.3,0-0.6,0.1-0.9,0.2c-0.5,0.1-1,0.2-1.4,0.3  c-0.1,0-0.3,0-0.4,0c-0.3,0-0.5,0.2-0.8,0.2c-0.3,0.1-0.6,0.1-0.9,0.2c-0.6,0.1-1.2,0.2-1.9,0.3c-3.5,0.5-17.7,3-19.6,3.7  c-0.1,0.1-0.3,0.1-0.3,0.3c0,0.4-0.5-0.1-0.9,0.4c-0.1,0.1-0.5,0.1-0.5,0.1c-0.1-0.3-0.4-0.2-0.6-0.2c-0.4,0-0.8,0.1-1.1,0.2  c-0.2,0-0.4,0.1-0.5,0c-0.4-0.2-0.8,0-1.2,0.1c-0.3,0.1-0.6,0.1-0.9,0.2c-0.4,0.2-0.8,0.4-1.2,0.6c-1.9,0.9-4.2,0.9-6.8,1.6  c-0.7,0.2-1.4,0.4-2,0.9c-0.1,0.1-0.4,0.2-0.5,0c-0.1-0.2-0.3-0.2-0.5-0.1c-1,0.2-1.9,0.7-2.9,0.8c0,0-0.1,0-0.1,0  c-0.4,0.1-0.8,0.3-1.3,0.4c-0.7,0.2-1.4,0.4-1.9,1c-0.2,0-0.3-0.1-0.4-0.1c0,0.5-0.3,0.5-0.6,0.6c-0.4,0.1-0.8,0.2-1.2,0.4  c-0.2,0.1-0.3,0.1-0.4,0.3c0,0,0,0.1-0.1,0.1c-0.3,0.1-0.5,0.1-0.7,0.2c-0.1,0.1-0.3,0.1-0.3,0.3c0,0.4-0.5-0.1-0.9,0.4  c-0.1,0.1-0.5,0.1-0.5,0.1c-0.1-0.3-0.4-0.2-0.6-0.2c-0.4,0-0.8,0.1-1.1,0.2c-0.2,0-0.4,0.1-0.5,0c-0.4-0.2-0.8,0-1.2,0.1  c-0.3,0.1-0.6,0.1-0.9,0.2c-0.4,0.2-0.8,0.4-1.2,0.6c-1.9,0.9-4.2,0.9-6.8,1.6c-0.7,0.2-1.4,0.4-2,0.9c-0.1,0.1-0.4,0.2-0.5,0  c-0.1-0.2-0.3-0.2-0.5-0.1c-1,0.2-1.9,0.7-2.9,0.8c0,0-0.1,0-0.1,0c-0.4,0.1-0.8,0.3-1.3,0.4c-0.7,0.2-1.4,0.4-1.9,1  c-0.2,0-0.3-0.1-0.4-0.1c0,0.5-0.3,0.5-0.6,0.6c-0.4,0.1-0.8,0.2-1.2,0.4c-0.2,0.1-0.3,0.1-0.4,0.3c-0.5,0.5-0.7,1.2-0.9,1.9  c0,0.1,0,0.3,0,0.4c0.2,0.7,0.4,1.5,0.3,2.3c-0.3,3.1,4,0.9-2,3.3c-1.2,0.5-6.6,2.3-7.5,2.8c-0.2,0.1-0.4,0.3-0.6,0.5  c-1.8,1.1,1.4,0.3-2.8,2.7c-0.1,0-0.2,0.1-0.2,0.2c-0.1,0.3-0.3,0.4-0.5,0.5c-0.9,0.3-1.7,0.6-2.6,0.9c-0.5,0.2-1,0.3-1.6,0.5  c-0.4,0.1-0.6,0.4-0.6,0.8c0,0.3,0,0.6-0.1,0.9c0,0.8,0,1.5,0,2.3c0,0.1-0.1,0.3-0.2,0.4c-0.2,0.1-0.4,0.2-0.6,0.3  c-0.1,0-0.3,0.1-0.4,0.1c-0.6-0.1-1.1,0.1-1.4,0.7c-0.1,0.1-0.2,0.3-0.3,0.4c-0.2,0.1-0.4,0.3-0.6,0.4c-0.8,0.5-0.1,2.3-0.9,3.7  c-0.1,0.3-0.3,0.4-0.6,0.5c-0.4,0.2-0.8,0.4-1.2,0.6c-0.8,0.4-1.4,0.9-1.9,1.6c-0.2,0.2-0.2,0.4-0.2,0.7c0.1,0.4,0.1,0.8-0.1,1.2  c-0.6,1,2,6.5,2.1,7c0,0.4,0.3,0.9,0.4,1.3c0.1,0.2,0.2,0.2,0.4,0.3c0.5,0.1,0.9,0.1,1.4,0c1.2-0.3,2.3-0.6,3.5-1  c3.6-1,7.6-2.4,11.2-3.1c0.3-0.1,0.6-0.1,1,0c0.4,0.1,0.8,0,1.1-0.3c0.6-0.4,1.3-0.2,1.6,0.5c0.1,0.1,0.1,0.2,0.2,0.4  c2.5,4.1,2.6-2.2,5.5-2.2c-2.3,1.8-0.2,1.8,0.5,3.9c0,0.1,0.1,0.2,0.2,0.3c0.6,0.8-0.7,4.6-0.7,4.6c-0.1,0-0.2,0.1-0.2,0.1  c-0.7,0.3-1.4,0.5-2.1,0.8c-0.1,0-0.2,0.1-0.2,0.1c-0.5,0.4-1,0.5-1.6,0.7c-0.6,0.2-0.9,0.6-0.8,1.2c0.1,0.6-0.1,1.2-0.2,1.8  c0,0.2-0.1,0.4-0.2,0.6c-0.1,0.3,0,0.6,0.1,0.9c0.2,0.6,0.2,1.2,0.4,1.9c0.1,0.6,0.3,1.3,0.5,1.9c0.2,0.7,0.5,0.8,1.3,0.7  c0.4-0.1,0.9-0.2,1.3-0.3c1.2-0.3,2.4-0.6,3.6-0.8c8-1.8,15.8-4,23.7-6.2c1.1-0.3,2.1-0.6,3.2-0.8c1.2-0.3,2.3-0.6,3.5-0.9  c3.7-0.8,7.5-1.7,11.2-2.7c0.2,0.2,0.5,0.2,0.9,0.1c0.4-0.1,0.9-0.2,1.3-0.3c1.2-0.3,2.4-0.6,3.6-0.8c1-0.2,2-0.5,3-0.7  c0.2,0.3,0.5,0.4,1.1,0.3c0.4-0.1,0.9-0.2,1.3-0.3c1.2-0.3,2.4-0.6,3.6-0.8c8-1.8,15.8-4,23.7-6.2c1.1-0.3,2.1-0.6,3.2-0.8  c1.2-0.3,2.3-0.6,3.5-0.9c4.8-1.1,9.8-2.3,14.6-3.5c0.3-0.1,0.7-0.2,1-0.3c0.5-0.3,0.9-0.4,1.5-0.3c0.1,0,0.3,0,0.4-0.1  c0.2-0.2,0.4-0.5,0.4-0.7c0.2-0.5,0.2-1,0.3-1.4c0.1-0.3,0.1-0.5,0.5-0.6c0.1,0,0.2-0.1,0.2-0.2c0-0.2,0.1-0.2,0.3-0.3  c0.1-0.1,0.1-0.1,0.2-0.2c-0.2-0.1-0.3-0.2-0.4-0.4c0.2-0.1,0.3-0.2,0.4-0.3c-0.1-0.2-0.2-0.3-0.3-0.5c0.2-0.2,0.4-0.4,0.6-0.6  c0,0,0-0.1-0.1-0.1c-0.3,0-0.7,0.1-1,0.1c-0.1,0-0.2-0.1-0.3-0.2c-0.3-0.4-0.7-0.6-1.1-0.8c-0.3-0.2-0.5-0.1-0.6,0.1  c-0.1-0.1-0.2-0.1-0.2-0.1c-2.7,0.2-6.3,0.9-9.9,1.7c-2.9,0.3-6.7,1.1-10.4,1.9c0,0,0,0,0,0c-0.1-0.8,0.3-1.2,1-1.4  c0.2,0,0.3-0.1,0.5-0.1c6.1-2.2,13.4-3.9,19.6-5.7c0.6-0.2,1.2-0.3,1.9-0.5c0.1,0,0.2-0.1,0.2-0.1c2,0,4.4-1.2,6.2-1.4  c0.5,0,1-0.1,1.6,0c0.4,0,0.6-0.2,0.8-0.5c0.1-0.3,0.2-0.6,0.2-0.8c0-0.2,0.1-0.4,0.1-0.6c0.1-0.5,0.3-1.1,0.4-1.6  c0.1-0.4,0.2-0.8,0.7-0.8c0.3,0,0.7-0.1,1,0.1c0.1,0.1,0.3,0,0.5,0c1.3-0.5,2.7-1,4-1.5c0.3-0.1,0.6-0.1,1-0.2  c0.1,0,0.1-0.1,0.2-0.1c0.5-0.1,1-0.2,1.5-0.4c1.1-0.3,2.1-0.4,3.2-0.5c0.5,0,1,0,1.5-0.1c0.9-0.2,1.8-0.4,2.6-0.6  c0.4-0.1,0.6-0.3,0.7-0.6c0.2-0.4,0.4-0.8,0.6-1.2c0.5-0.8,0.4-1.6,0.4-2.4c0-0.4-0.1-0.9-0.3-1.3c-0.1-0.2-0.1-0.4,0.1-0.5  c0.1-0.1,0.2-0.2,0.4-0.3c0.9-0.5,1.7-3.8,1.2-5c-0.1-0.2-0.1-0.4,0-0.6c0.1-0.4,0.3-0.9,0.4-1.3C282.8,30.5,282.7,29.9,282.3,29.4z  "></path>
<g>
	<path d="M28.1,30.9v4H11.4v13.3h14.2V52H11.4v17.2H6.4V30.9H28.1z"></path>
	<path d="M55.9,60.3H39l-3.2,8.9h-5.3l14.2-37.6h5.6l14.1,37.6h-5.3L55.9,60.3z M54.4,56.5l-7-19.3l-7,19.3H54.4z"></path>
	<path d="M91.8,64.3c-0.9,1.6-2.2,2.8-4,3.8c-1.8,1-4,1.5-6.6,1.5c-2.5,0-4.8-0.5-6.8-1.4c-2-0.9-3.6-2.2-4.7-3.8   c-1.2-1.6-1.9-3.5-2-5.5H73c0.1,1.1,0.5,2.1,1.1,3.2c0.6,1,1.5,1.9,2.7,2.6c1.2,0.7,2.6,1,4.3,1c2.2,0,3.8-0.6,5-1.7   c1.2-1.2,1.7-2.6,1.7-4.5c0-1.6-0.4-2.8-1.2-3.8s-1.8-1.7-3-2.3c-1.2-0.6-2.8-1.2-4.9-1.8c-2.4-0.8-4.4-1.5-5.8-2.3   c-1.5-0.7-2.7-1.8-3.7-3.2c-1-1.4-1.5-3.3-1.5-5.6c0-2,0.5-3.7,1.4-5.3c1-1.5,2.3-2.7,4.1-3.5c1.8-0.8,3.9-1.2,6.3-1.2   c3.8,0,6.8,0.9,9,2.7c2.2,1.8,3.5,4.2,3.9,7h-5.3c-0.3-1.5-1.1-2.9-2.3-4c-1.3-1.2-3-1.7-5.2-1.7c-2,0-3.6,0.5-4.8,1.5   s-1.8,2.5-1.8,4.4c0,1.5,0.4,2.7,1.2,3.6c0.8,0.9,1.7,1.6,2.9,2.2c1.2,0.5,2.8,1.1,4.8,1.8c2.5,0.8,4.4,1.6,5.9,2.3   c1.5,0.7,2.8,1.8,3.8,3.3c1.1,1.5,1.6,3.4,1.6,5.8C93.1,61,92.6,62.7,91.8,64.3z"></path>
	<path d="M128.6,30.9v38.3h-5V51.5h-19.5v17.7h-4.9V30.9h4.9v16.6h19.5V30.9H128.6z"></path>
	<path d="M140.9,30.9v38.3h-4.9V30.9H140.9z"></path>
	<path d="M175.4,32.9c2.8,1.7,5.1,4,6.7,7c1.6,3,2.4,6.4,2.4,10.1c0,3.8-0.8,7.1-2.4,10.1s-3.9,5.3-6.7,7c-2.8,1.7-6,2.5-9.6,2.5   c-3.6,0-6.8-0.8-9.6-2.5c-2.9-1.7-5.1-4-6.8-7c-1.6-3-2.4-6.4-2.4-10.1c0-3.8,0.8-7.1,2.4-10.1c1.6-3,3.9-5.3,6.8-7   c2.9-1.7,6.1-2.5,9.6-2.5C169.4,30.4,172.6,31.2,175.4,32.9z M158.7,36.8c-2.1,1.2-3.7,3-4.9,5.2c-1.2,2.3-1.8,4.9-1.8,8   c0,3,0.6,5.7,1.8,7.9c1.2,2.3,2.8,4,4.9,5.2c2.1,1.2,4.4,1.8,7.1,1.8c2.6,0,5-0.6,7-1.8c2.1-1.2,3.7-3,4.9-5.2   c1.2-2.3,1.8-4.9,1.8-7.9c0-3-0.6-5.7-1.8-8c-1.2-2.3-2.8-4-4.9-5.2c-2.1-1.2-4.4-1.8-7-1.8C163.2,35,160.8,35.6,158.7,36.8z"></path>
	<path d="M220.5,69.2h-4.9l-19.9-30.3v30.3h-4.9V30.9h4.9l19.9,30.3V30.9h4.9V69.2z"></path>
	<path d="M263.7,64.3c-0.9,1.6-2.2,2.8-4,3.8c-1.8,1-4,1.5-6.6,1.5c-2.5,0-4.8-0.5-6.8-1.4c-2-0.9-3.5-2.2-4.7-3.8   c-1.2-1.6-1.9-3.5-2-5.5h5.3c0.1,1.1,0.5,2.1,1.1,3.2c0.6,1,1.5,1.9,2.7,2.6c1.2,0.7,2.6,1,4.3,1c2.2,0,3.8-0.6,5-1.7   c1.2-1.2,1.7-2.6,1.7-4.5c0-1.6-0.4-2.8-1.2-3.8c-0.8-1-1.8-1.7-3-2.3c-1.2-0.6-2.8-1.2-4.9-1.8c-2.4-0.8-4.4-1.5-5.8-2.3   c-1.5-0.7-2.7-1.8-3.7-3.2c-1-1.4-1.5-3.3-1.5-5.6c0-2,0.5-3.7,1.4-5.3c1-1.5,2.3-2.7,4.1-3.5c1.8-0.8,3.9-1.2,6.3-1.2   c3.8,0,6.8,0.9,9,2.7c2.2,1.8,3.5,4.2,3.9,7h-5.3c-0.3-1.5-1.1-2.9-2.3-4c-1.3-1.2-3-1.7-5.2-1.7c-2,0-3.6,0.5-4.8,1.5   s-1.8,2.5-1.8,4.4c0,1.5,0.4,2.7,1.2,3.6c0.8,0.9,1.7,1.6,2.9,2.2c1.2,0.5,2.8,1.1,4.8,1.8c2.5,0.8,4.4,1.6,6,2.3   c1.5,0.7,2.8,1.8,3.8,3.3c1.1,1.5,1.6,3.4,1.6,5.8C265,61,264.6,62.7,263.7,64.3z"></path>
	<path d="M294.5,30.9v4h-10.8v34.3h-4.9V34.9H268v-4H294.5z"></path>
	<path d="M326,32.9c2.8,1.7,5.1,4,6.7,7c1.6,3,2.4,6.4,2.4,10.1c0,3.8-0.8,7.1-2.4,10.1s-3.9,5.3-6.7,7c-2.8,1.7-6,2.5-9.6,2.5   c-3.6,0-6.8-0.8-9.6-2.5c-2.9-1.7-5.1-4-6.8-7s-2.4-6.4-2.4-10.1c0-3.8,0.8-7.1,2.4-10.1c1.6-3,3.9-5.3,6.8-7   c2.9-1.7,6.1-2.5,9.6-2.5C320,30.4,323.2,31.2,326,32.9z M309.3,36.8c-2.1,1.2-3.7,3-4.9,5.2c-1.2,2.3-1.8,4.9-1.8,8   c0,3,0.6,5.7,1.8,7.9c1.2,2.3,2.8,4,4.9,5.2c2.1,1.2,4.4,1.8,7.1,1.8c2.6,0,5-0.6,7-1.8c2.1-1.2,3.7-3,4.9-5.2   c1.2-2.3,1.8-4.9,1.8-7.9c0-3-0.6-5.7-1.8-8c-1.2-2.3-2.8-4-4.9-5.2c-2.1-1.2-4.4-1.8-7-1.8C313.8,35,311.4,35.6,309.3,36.8z"></path>
	<path d="M361.6,69.2l-10-15.6h-5.4v15.6h-4.9V30.9h12.6c4.3,0,7.6,1,9.8,3.1c2.2,2.1,3.3,4.8,3.3,8.3c0,3.1-0.9,5.6-2.6,7.5   c-1.7,1.9-4.3,3.1-7.6,3.6l10.4,15.8H361.6z M346.3,49.9h7.2c5.6,0,8.4-2.5,8.4-7.4s-2.8-7.4-8.4-7.4h-7.2V49.9z"></path>
	<path d="M377.4,34.9V48H392v3.8h-14.6v13.4h16.2v4h-21.1V30.9h21.1v4H377.4z"></path>
</g>
</svg>