<svg xmlns="http://www.w3.org/2000/svg" xmlns:xlink="http://www.w3.org/1999/xlink" id="Layer_1" x="0px" y="0px" viewBox="0 0 300 200" style="enable-background:new 0 0 300 200;" xml:space="preserve">
<style type="text/css">
	.st0{opacity:0.33;fill:#B1787E;}
</style>
<g>
	<path d="M62.6,41.4v4H45.9v13.3h14.2v3.9H45.9v17.2H41V41.4H62.6z"></path>
	<path d="M90.4,70.8H73.6l-3.2,8.9H65l14.2-37.6h5.6l14.1,37.6h-5.3L90.4,70.8z M89,67l-7-19.3L75,67H89z"></path>
	<path d="M126.3,74.8c-0.9,1.6-2.2,2.8-4,3.8c-1.8,1-4,1.5-6.6,1.5c-2.5,0-4.8-0.5-6.8-1.4c-2-0.9-3.6-2.2-4.7-3.8   c-1.2-1.6-1.9-3.5-2-5.5h5.3c0.1,1.1,0.5,2.1,1.1,3.2c0.6,1,1.5,1.9,2.7,2.6c1.2,0.7,2.6,1,4.3,1c2.2,0,3.8-0.6,5-1.7   c1.2-1.2,1.7-2.6,1.7-4.5c0-1.6-0.4-2.8-1.2-3.8s-1.8-1.7-3-2.3c-1.2-0.6-2.8-1.2-4.9-1.8c-2.4-0.8-4.4-1.5-5.8-2.3   c-1.5-0.7-2.7-1.8-3.7-3.2c-1-1.4-1.5-3.3-1.5-5.6c0-2,0.5-3.7,1.4-5.3c1-1.5,2.3-2.7,4.1-3.5c1.8-0.8,3.9-1.2,6.3-1.2   c3.8,0,6.8,0.9,9,2.7c2.2,1.8,3.5,4.2,3.9,7h-5.3c-0.3-1.5-1.1-2.9-2.3-4c-1.3-1.2-3-1.7-5.2-1.7c-2,0-3.6,0.5-4.8,1.5   s-1.8,2.5-1.8,4.4c0,1.5,0.4,2.7,1.2,3.6c0.8,0.9,1.7,1.6,2.9,2.2c1.2,0.5,2.8,1.1,4.8,1.8c2.5,0.8,4.4,1.6,5.9,2.3   c1.5,0.7,2.8,1.8,3.8,3.3c1.1,1.5,1.6,3.4,1.6,5.8C127.6,71.5,127.2,73.2,126.3,74.8z"></path>
	<path d="M163.1,41.4v38.3h-5V62h-19.5v17.7h-4.9V41.4h4.9v16.6h19.5V41.4H163.1z"></path>
	<path d="M175.4,41.4v38.3h-4.9V41.4H175.4z"></path>
	<path d="M210,43.4c2.8,1.7,5.1,4,6.7,7c1.6,3,2.4,6.4,2.4,10.1c0,3.8-0.8,7.1-2.4,10.1s-3.9,5.3-6.7,7c-2.8,1.7-6,2.5-9.6,2.5   c-3.6,0-6.8-0.8-9.6-2.5c-2.9-1.7-5.1-4-6.8-7c-1.6-3-2.4-6.4-2.4-10.1c0-3.8,0.8-7.1,2.4-10.1c1.6-3,3.9-5.3,6.8-7   c2.9-1.7,6.1-2.5,9.6-2.5C203.9,40.9,207.1,41.7,210,43.4z M193.3,47.3c-2.1,1.2-3.7,3-4.9,5.2c-1.2,2.3-1.8,4.9-1.8,8   c0,3,0.6,5.7,1.8,7.9c1.2,2.3,2.8,4,4.9,5.2c2.1,1.2,4.4,1.8,7.1,1.8c2.6,0,5-0.6,7-1.8c2.1-1.2,3.7-3,4.9-5.2   c1.2-2.3,1.8-4.9,1.8-7.9c0-3-0.6-5.7-1.8-8c-1.2-2.3-2.8-4-4.9-5.2c-2.1-1.2-4.4-1.8-7-1.8C197.7,45.5,195.4,46.1,193.3,47.3z"></path>
	<path d="M255,79.7h-4.9l-19.9-30.3v30.3h-4.9V41.4h4.9l19.9,30.3V41.4h4.9V79.7z"></path>
</g>
<g>
	<path d="M95.2,130.8c-0.9,1.6-2.2,2.8-4,3.8c-1.8,1-4,1.5-6.6,1.5c-2.5,0-4.8-0.5-6.8-1.4c-2-0.9-3.5-2.2-4.7-3.8   c-1.2-1.6-1.9-3.5-2-5.5h5.3c0.1,1.1,0.5,2.1,1.1,3.2c0.6,1,1.5,1.9,2.7,2.6c1.2,0.7,2.6,1,4.3,1c2.2,0,3.8-0.6,5-1.7   c1.2-1.2,1.7-2.6,1.7-4.5c0-1.6-0.4-2.8-1.2-3.8c-0.8-1-1.8-1.7-3-2.3c-1.2-0.6-2.8-1.2-4.9-1.8c-2.4-0.8-4.4-1.5-5.8-2.3   c-1.5-0.7-2.7-1.8-3.7-3.2c-1-1.4-1.5-3.3-1.5-5.6c0-2,0.5-3.7,1.4-5.3c1-1.5,2.3-2.7,4.1-3.5c1.8-0.8,3.9-1.2,6.3-1.2   c3.8,0,6.8,0.9,9,2.7c2.2,1.8,3.5,4.2,3.9,7h-5.3c-0.3-1.5-1.1-2.9-2.3-4c-1.3-1.2-3-1.7-5.2-1.7c-2,0-3.6,0.5-4.8,1.5   s-1.8,2.5-1.8,4.4c0,1.5,0.4,2.7,1.2,3.6c0.8,0.9,1.7,1.6,2.9,2.2c1.2,0.5,2.8,1.1,4.8,1.8c2.5,0.8,4.4,1.6,6,2.3   c1.5,0.7,2.8,1.8,3.8,3.3c1.1,1.5,1.6,3.4,1.6,5.8C96.5,127.5,96,129.2,95.2,130.8z"></path>
	<path d="M126,97.4v4h-10.8v34.3h-4.9v-34.3H99.5v-4H126z"></path>
	<path d="M157.5,99.4c2.8,1.7,5.1,4,6.7,7c1.6,3,2.4,6.4,2.4,10.1c0,3.8-0.8,7.1-2.4,10.1s-3.9,5.3-6.7,7c-2.8,1.7-6,2.5-9.6,2.5   c-3.6,0-6.8-0.8-9.6-2.5c-2.9-1.7-5.1-4-6.8-7s-2.4-6.4-2.4-10.1c0-3.8,0.8-7.1,2.4-10.1c1.6-3,3.9-5.3,6.8-7   c2.9-1.7,6.1-2.5,9.6-2.5C151.5,96.9,154.7,97.7,157.5,99.4z M140.8,103.3c-2.1,1.2-3.7,3-4.9,5.2c-1.2,2.3-1.8,4.9-1.8,8   c0,3,0.6,5.7,1.8,7.9c1.2,2.3,2.8,4,4.9,5.2c2.1,1.2,4.4,1.8,7.1,1.8c2.6,0,5-0.6,7-1.8c2.1-1.2,3.7-3,4.9-5.2   c1.2-2.3,1.8-4.9,1.8-7.9c0-3-0.6-5.7-1.8-8c-1.2-2.3-2.8-4-4.9-5.2c-2.1-1.2-4.4-1.8-7-1.8C145.3,101.5,142.9,102.1,140.8,103.3z"></path>
	<path d="M193.1,135.7l-10-15.6h-5.4v15.6h-4.9V97.4h12.6c4.3,0,7.6,1,9.8,3.1c2.2,2.1,3.3,4.8,3.3,8.3c0,3.1-0.9,5.6-2.6,7.5   c-1.7,1.9-4.3,3.1-7.6,3.6l10.4,15.8H193.1z M177.7,116.4h7.2c5.6,0,8.4-2.5,8.4-7.4s-2.8-7.4-8.4-7.4h-7.2V116.4z"></path>
	<path d="M208.9,101.4v13.1h14.6v3.8h-14.6v13.4h16.2v4h-21.1V97.4h21.1v4H208.9z"></path>
</g>
<path class="st0" d="M80.2,56.9c0.1-2-0.3-4-1-5.9c-0.1-0.3-0.2-0.7-0.2-1c0.4-1.8,0.9-3.6,2-5c0.3-0.3,0.7-0.5,1-0.7  c0.9-0.4,1.9-0.7,2.9-1c0.7-0.3,1.6-0.4,1.5-1.7c0.4,0.1,0.7,0.2,1.1,0.3c1.1-1.6,2.8-2.2,4.5-2.8c1-0.4,2-0.8,3.1-1.2  c0.1,0,0.2-0.1,0.2-0.1c2.5-0.3,4.7-1.7,7.1-2.2c0.5-0.1,0.8-0.2,1.2,0.3c0.3,0.5,0.8,0.2,1.2-0.1c1.4-1.3,3.1-2,4.8-2.5  c6.5-1.8,12.1-1.9,16.8-4.5c0.9-0.6,1.9-1.1,2.9-1.6c0.7-0.3,1.5-0.4,2.2-0.7c1-0.3,1.9-0.8,3.1-0.4c0.4,0.1,0.8-0.1,1.2-0.2  c0.9-0.2,1.8-0.5,2.8-0.6c0.4-0.1,1.1-0.4,1.4,0.4c0,0.1,1,0,1.2-0.3c1.2-1.3,2.3-0.1,2.3-1.1c0-0.5,0.3-0.7,0.6-0.8  c4.6-2,39.5-9.1,48.1-10.7c1.5-0.3,3-0.6,4.6-1c0.7-0.2,1.5-0.3,2.2-0.5c0.6-0.2,1.2-0.6,1.9-0.7c0.6-0.1,1.3,0.1,2,0  c0.6-0.1,1.1-0.4,1.7-0.6c1.6-0.6,3.3-1,5-1c1,0,2.1-0.3,3.1-0.4c2.2-0.3,4.5-0.3,6.7-0.8c4.9-1,6.2,2.6,12.7,1.9  c0.4,0,0.8-0.1,1.2-0.3c4.4-1.6,10.6-0.8,12.9-1.3c0,0.1,0,0.2,0.1,0.2c-0.5,0.2-0.9,0.4-1.6,0.7c0.8,0.6,1.5,1.2,2.2,1.8  c-0.1,0.2-0.2,0.5-0.3,0.9c0.3,0,0.7,0,1.2,0c-0.5,0.5-0.8,0.8-1.2,1.2c0.4,0.2,0.9,0.3,1.5,0.5c-4.7,2.8-6.9,3.3-12.5,4.7  c-1.6,0.4-3.2,0.7-4.8,1.1c-0.3,0.1-0.6,0.2-1,0.4c0.4,0.8,0.8,1.4,1,2.1c0.2,0.4,0.4,0.9,0.3,1.3c-0.4,1.4-0.4,2.9-1.1,4.2  c-0.3,0.5-0.4,1.1-0.5,1.6c-0.2,1.3-0.3,2.6-1.1,3.8c1.6,1,1.9,2.7,2.3,4.4c0.6,0.1,1.1,0,1.6-0.4c0.5-0.5,1-0.9,1.5-1.5  c1.1-1.4,2.5-1.2,3.9-0.9c0.4,0.1,0.8,0.4,1.2,0.5c0.3,0.1,0.6,0.2,1,0.1c1.4-0.3,2.7-0.7,4-1c4.6-0.9,9.3-1.7,13.9-2.7  c1.8-0.4,3.6-1,5.3-1.6c0.8-0.3,1.7-0.5,2.5-0.8c1.4-0.5,2.3-0.3,3.3,0.9c1.3,1.7,2,3.6,1.4,5.7c-0.3,1-0.6,1.9-0.9,2.9  c-0.1,0.3-0.3,0.7-0.3,1c0.2,1.8-0.4,3.4-0.8,5.1c0,0.2,0,0.3,0,0.6c0.3,0,0.6,0,0.9,0c1.8-0.2,3.6,0.8,4.4,2.5c0.5,1,0.8,2,1.3,3.1  c0.3,0,0.7,0.1,1.1,0c0.5,0,1-0.1,1.5-0.2c2-0.4,3.5,0.5,4.7,2c1,1.2,1.2,2.8,0.9,4.3c-0.2,1.2-0.6,2.3-0.8,3.5  c-0.1,0.5-0.1,1.2,0.2,1.7c1.4,2.9-0.2,11.5-2.4,13c-0.3,0.2-0.6,0.5-0.9,0.8c-0.4,0.4-0.5,0.9-0.2,1.3c0.8,1,0.9,2.2,1,3.4  c0.1,2.2,0.4,4.4-0.6,6.4c-0.5,1-0.9,2.1-1.4,3.1c-0.4,0.9-0.9,1.5-1.8,1.7c-2.2,0.6-4.3,1.2-6.5,1.6c-1.2,0.2-2.4,0.1-3.6,0.3  c-2.6,0.3-5.2,0.8-7.8,1.5c-1.6,0.4-3,1.2-4.7,1.3c-0.2,0-0.3,0.1-0.5,0.1c-3.7,1.5-7.4,3.1-11.1,4.6c-0.3,0.1-0.9,0.2-1.2,0  c-0.9-0.5-1.7-0.2-2.5-0.1c-1.1,0.2-1.4,1.3-1.7,2.3c-0.3,1.4-0.6,2.8-0.9,4.3c-0.1,0.5-0.1,1-0.2,1.6c-0.1,0.7-0.2,1.5-0.4,2.2  c-0.3,0.8-0.9,1.3-1.9,1.3c-1.3-0.1-2.6,0.1-3.9,0.2c-4.6,0.5-10.4,3.8-15.3,4c-0.2,0-0.4,0.1-0.6,0.2c-1.5,0.5-3,1-4.5,1.5  c-15.1,5.1-33,9.9-47.7,16.1c-0.4,0.2-0.8,0.3-1.2,0.4c-1.8,0.5-2.5,1.7-2.3,3.7c0,0.2,0.1,0.4,0.1,0.8c0.5,0,0.9,0,1.4-0.1  c13.6-3.2,35.6-10,48.5-11.3c0.2,0,0.4,0.2,0.6,0.3c0.3-0.7,0.7-0.9,1.4-0.4c1,0.6,2,1.1,2.7,2.1c0.2,0.3,0.5,0.4,0.7,0.5  c0.9-0.1,1.8-0.3,2.6-0.4c0.1,0.1,0.1,0.2,0.2,0.3c-0.4,0.5-0.9,1-1.4,1.6c0.2,0.4,0.4,0.8,0.7,1.2c-0.3,0.3-0.6,0.5-1,0.9  c0.4,0.3,0.7,0.6,1.1,0.9c-0.2,0.2-0.4,0.4-0.6,0.6c-0.3,0.2-0.7,0.3-0.6,0.9c0,0.1-0.2,0.4-0.4,0.4c-0.8,0.2-1,0.9-1.1,1.6  c-0.2,1.3-0.4,2.5-0.7,3.8c-0.2,0.7-0.6,1.3-1,1.9c-0.1,0.2-0.6,0.3-0.9,0.2c-1.3-0.2-2.5,0.2-3.6,0.9c-0.7,0.5-1.6,0.7-2.5,0.9  c-11.6,3.5-24,6.9-35.7,10c-2.9,0.8-5.7,1.7-8.6,2.6c-2.6,0.8-5.2,1.5-7.8,2.4c-19.3,6.1-38.2,12.3-57.9,17.5  c-3,0.8-5.9,1.6-8.9,2.4c-1.1,0.3-2.2,0.7-3.3,0.9c-1.8,0.4-2.5,0.1-3.2-1.7c-0.6-1.6-1.1-3.3-1.5-5c-0.4-1.6-0.6-3.2-1.1-4.8  c-0.2-0.8-0.5-1.5-0.4-2.3c0.1-0.6,0.2-1.1,0.3-1.7c0.2-1.6,0.7-3.1,0.3-4.7c-0.4-1.6,0.2-2.8,1.7-3.3c1.4-0.5,2.8-1,3.9-2  c0.2-0.1,0.4-0.2,0.5-0.3c1.7-0.7,3.4-1.4,5.1-2.2c0.2-0.1,0.4-0.2,0.6-0.3c0.1-0.1,2.9-10,1.3-12.1c-0.2-0.2-0.3-0.4-0.4-0.7  c-1.9-5.5-7.1-5.4-1.7-10.2c-7.3,0.1-6.8,16.8-13.4,6.1c-0.2-0.3-0.4-0.6-0.5-0.9c-0.8-1.8-2.6-2.3-4.1-1.1c-0.8,0.7-1.6,1-2.7,0.8  c-0.8-0.1-1.6-0.1-2.4,0.1c-8.8,2.3-18.6,6-27.4,8.9c-2.8,0.9-5.7,1.9-8.5,2.8c-1.1,0.3-2.2,0.5-3.4,0.1c-0.5-0.1-0.8-0.3-1-0.8  c-0.4-1.1-1-2.2-1.2-3.4c-0.2-1.3-7.3-15.5-5.9-18.3c0.5-1,0.5-2.1,0.2-3.2c-0.2-0.6,0-1.2,0.4-1.8c1.2-1.8,2.7-3.2,4.6-4.2  c1-0.5,1.9-1,2.9-1.5c0.6-0.3,1.1-0.8,1.4-1.5c1.7-3.7-0.2-8.4,1.7-9.7c0.5-0.3,0.9-0.6,1.3-1c0.3-0.3,0.6-0.6,0.8-1  c0.7-1.5,1.7-2.1,3.3-1.9c0.3,0,0.7,0,1-0.2c0.5-0.2,1-0.5,1.4-0.8c0.3-0.2,0.5-0.6,0.5-1c0-2-0.1-4-0.2-6c0-0.8,0-1.5,0-2.3  c0-1,0.5-1.7,1.3-2c1.3-0.5,2.5-0.9,3.8-1.4c2.1-0.8,4.2-1.6,6.4-2.4c0.6-0.2,1.1-0.6,1.3-1.3c0-0.2,0.2-0.5,0.4-0.6  c10.2-6.4,2.4-4.1,6.6-7.1c0.5-0.4,0.9-0.9,1.4-1.3c2-1.5,15.3-6.4,18.2-7.8C90.1,59.1,79.9,65.1,80.2,56.9L80.2,56.9z"></path>
<g>
	<path d="M54.1,170v1.9h-5.1V188h-2.3v-16.1h-5.1V170H54.1z"></path>
	<path d="M67.5,175.3c1,1,1.5,2.6,1.5,4.5v8.1h-2.3V180c0-1.4-0.4-2.5-1.1-3.2c-0.7-0.7-1.7-1.1-2.9-1.1c-1.3,0-2.3,0.4-3.1,1.2   c-0.8,0.8-1.1,2-1.1,3.6v7.4h-2.3v-18.9h2.3v8.2c0.4-1.1,1-2,1.9-2.6c0.9-0.6,2-0.9,3.2-0.9C65.2,173.7,66.5,174.3,67.5,175.3z"></path>
	<path d="M85.1,181.5H73.9c0.1,1.6,0.5,2.8,1.4,3.6c0.9,0.8,1.9,1.2,3.2,1.2c1.1,0,2.1-0.3,2.8-0.9s1.2-1.3,1.4-2.3h2.5   c-0.2,1-0.5,1.8-1.1,2.6c-0.6,0.8-1.3,1.4-2.3,1.8c-0.9,0.4-2,0.6-3.2,0.6c-1.3,0-2.5-0.3-3.6-0.9c-1-0.6-1.9-1.4-2.4-2.5   c-0.6-1.1-0.9-2.4-0.9-3.8c0-1.5,0.3-2.7,0.9-3.8c0.6-1.1,1.4-1.9,2.4-2.5s2.2-0.9,3.6-0.9c1.4,0,2.5,0.3,3.6,0.9s1.8,1.4,2.3,2.3   c0.5,1,0.8,2,0.8,3.2C85.2,180.7,85.2,181.1,85.1,181.5z M82.4,177.7c-0.4-0.7-0.9-1.2-1.6-1.6c-0.7-0.3-1.4-0.5-2.2-0.5   c-1.3,0-2.3,0.4-3.2,1.2c-0.9,0.8-1.3,2-1.4,3.5h9C82.9,179.3,82.8,178.4,82.4,177.7z"></path>
	<path d="M98.3,171.7L91.5,188H89l6.9-16.1h-9.4v-2h11.8V171.7z"></path>
	<path d="M119.7,188l-3.9-4.3c0,0.3-0.1,0.6-0.2,1c-0.2,1-0.7,1.9-1.5,2.5s-1.8,1-3,1c-1.1,0-2-0.2-2.8-0.7   c-0.8-0.5-1.5-1.1-1.9-1.9c-0.5-0.8-0.7-1.7-0.7-2.8c0-1.1,0.2-2,0.6-2.7c0.4-0.8,1-1.4,1.7-1.8c0.7-0.4,1.5-0.6,2.3-0.6   c0.1,0,0.3,0,0.6,0.1l-0.4-0.5c-0.5-0.6-0.8-1.1-1.1-1.6s-0.4-1.1-0.4-1.8s0.2-1.3,0.5-2c0.3-0.6,0.9-1.1,1.6-1.5   c0.7-0.4,1.5-0.6,2.5-0.6c1.5,0,2.6,0.4,3.4,1.1s1.2,1.7,1.4,2.8c0.1,0.4,0.2,0.8,0.2,1.1c0,0.2,0,0.3,0,0.4h-2.2   c0-0.1,0-0.3,0-0.4c0-0.2,0-0.3,0-0.3c0-0.9-0.3-1.5-0.7-2c-0.5-0.5-1.1-0.7-1.9-0.7c-0.7,0-1.3,0.2-1.8,0.7   c-0.4,0.4-0.7,1-0.7,1.6c0,0.5,0.1,1,0.3,1.4c0.2,0.4,0.5,0.8,1,1.3l9.5,11.3H119.7z M113.5,185.3c0.6-0.6,0.9-1.4,0.9-2.3   c0-0.6-0.2-1.2-0.5-1.8c-0.3-0.5-0.8-0.9-1.3-1.3c-0.5-0.3-1.1-0.5-1.7-0.5c-0.9,0-1.6,0.3-2.2,0.8c-0.6,0.6-0.9,1.4-0.9,2.4   c0,1.1,0.3,1.9,1,2.5c0.6,0.6,1.4,0.9,2.4,0.9C112.1,186.2,112.9,185.9,113.5,185.3z"></path>
	<path d="M132.2,171.9v6.2h6.8v1.8h-6.8v6.3h7.6v1.9h-9.9v-18h9.9v1.9H132.2z"></path>
	<path d="M144.9,169.1V188h-2.3v-18.9H144.9z"></path>
	<path d="M161.2,181.5H150c0.1,1.6,0.5,2.8,1.4,3.6c0.9,0.8,1.9,1.2,3.2,1.2c1.1,0,2.1-0.3,2.8-0.9c0.8-0.6,1.2-1.3,1.4-2.3h2.5   c-0.2,1-0.5,1.8-1.1,2.6s-1.3,1.4-2.3,1.8c-0.9,0.4-2,0.6-3.2,0.6c-1.3,0-2.5-0.3-3.6-0.9c-1-0.6-1.9-1.4-2.4-2.5   c-0.6-1.1-0.9-2.4-0.9-3.8c0-1.5,0.3-2.7,0.9-3.8s1.4-1.9,2.4-2.5c1-0.6,2.2-0.9,3.6-0.9c1.4,0,2.5,0.3,3.6,0.9   c1,0.6,1.8,1.4,2.3,2.3c0.5,1,0.8,2,0.8,3.2C161.3,180.7,161.2,181.1,161.2,181.5z M158.4,177.7c-0.4-0.7-0.9-1.2-1.6-1.6   s-1.4-0.5-2.2-0.5c-1.3,0-2.3,0.4-3.2,1.2c-0.9,0.8-1.3,2-1.4,3.5h9C159,179.3,158.8,178.4,158.4,177.7z"></path>
	<path d="M185.2,175.3c1,1,1.5,2.6,1.5,4.5v8.1h-2.3V180c0-1.4-0.3-2.4-1-3.2c-0.7-0.7-1.6-1.1-2.8-1.1c-1.2,0-2.2,0.4-2.9,1.2   c-0.7,0.8-1.1,2-1.1,3.6v7.4h-2.3V180c0-1.4-0.3-2.4-1-3.2c-0.7-0.7-1.6-1.1-2.8-1.1c-1.2,0-2.2,0.4-3,1.2c-0.7,0.8-1.1,2-1.1,3.6   v7.4H164v-14h2.3v3.2c0.3-1.1,0.9-2,1.8-2.5c0.9-0.6,1.9-0.9,3-0.9c1.2,0,2.2,0.3,3.1,0.9c0.9,0.6,1.5,1.5,1.9,2.7   c0.4-1.1,1-2,2-2.6c0.9-0.6,2-0.9,3.1-0.9C182.9,173.7,184.2,174.3,185.2,175.3z"></path>
	<path d="M202.9,181.5h-11.2c0.1,1.6,0.5,2.8,1.4,3.6c0.9,0.8,1.9,1.2,3.2,1.2c1.1,0,2.1-0.3,2.8-0.9c0.8-0.6,1.2-1.3,1.4-2.3h2.5   c-0.2,1-0.5,1.8-1.1,2.6s-1.3,1.4-2.3,1.8c-0.9,0.4-2,0.6-3.2,0.6c-1.3,0-2.5-0.3-3.6-0.9c-1-0.6-1.9-1.4-2.4-2.5   c-0.6-1.1-0.9-2.4-0.9-3.8c0-1.5,0.3-2.7,0.9-3.8s1.4-1.9,2.4-2.5c1-0.6,2.2-0.9,3.6-0.9c1.4,0,2.5,0.3,3.6,0.9   c1,0.6,1.8,1.4,2.3,2.3c0.5,1,0.8,2,0.8,3.2C203,180.7,202.9,181.1,202.9,181.5z M200.1,177.7c-0.4-0.7-0.9-1.2-1.6-1.6   s-1.4-0.5-2.2-0.5c-1.3,0-2.3,0.4-3.2,1.2c-0.9,0.8-1.3,2-1.4,3.5h9C200.7,179.3,200.5,178.4,200.1,177.7z"></path>
	<path d="M217.1,175.3c1,1,1.5,2.6,1.5,4.5v8.1h-2.3V180c0-1.4-0.4-2.5-1.1-3.2c-0.7-0.7-1.7-1.1-2.9-1.1c-1.3,0-2.3,0.4-3.1,1.2   s-1.1,2-1.1,3.6v7.4h-2.3v-14h2.3v3.3c0.4-1.1,1-2,1.9-2.6c0.9-0.6,2-0.9,3.2-0.9C214.7,173.7,216.1,174.3,217.1,175.3z"></path>
	<path d="M228.6,185.9v2h-1.7c-1.4,0-2.5-0.3-3.2-1c-0.7-0.7-1.1-1.8-1.1-3.4V176h-2.1v-2h2.1v-3.5h2.3v3.5h3.6v2h-3.6v7.6   c0,0.9,0.2,1.5,0.5,1.9c0.3,0.3,0.9,0.5,1.7,0.5H228.6z"></path>
	<path d="M241.1,174.7c1.1,0.6,1.9,1.4,2.5,2.5c0.6,1.1,0.9,2.4,0.9,3.8c0,1.5-0.3,2.7-0.9,3.8c-0.6,1.1-1.4,1.9-2.5,2.5   c-1.1,0.6-2.3,0.9-3.6,0.9c-1.3,0-2.5-0.3-3.6-0.9c-1.1-0.6-1.9-1.4-2.5-2.5c-0.6-1.1-0.9-2.4-0.9-3.8c0-1.5,0.3-2.7,0.9-3.8   c0.6-1.1,1.5-1.9,2.5-2.5s2.3-0.9,3.6-0.9C238.9,173.8,240.1,174.1,241.1,174.7z M235.2,176.4c-0.7,0.4-1.3,0.9-1.7,1.7   c-0.4,0.8-0.7,1.7-0.7,2.9c0,1.1,0.2,2.1,0.7,2.8s1,1.3,1.7,1.7s1.5,0.6,2.3,0.6s1.6-0.2,2.3-0.6c0.7-0.4,1.3-0.9,1.7-1.7   s0.7-1.7,0.7-2.8c0-1.1-0.2-2.1-0.7-2.9c-0.4-0.8-1-1.3-1.7-1.7c-0.7-0.4-1.5-0.6-2.3-0.6S235.9,176,235.2,176.4z"></path>
	<path d="M251.7,174.5c0.9-0.5,1.9-0.8,3.2-0.8v2.5h-0.7c-1.3,0-2.4,0.3-3.2,1c-0.8,0.7-1.3,1.8-1.3,3.3v7.4h-2.3v-14h2.3v2.8   C250.1,175.8,250.8,175.1,251.7,174.5z"></path>
</g>
</svg>